# xmcd CD database file
#
# Track frame offsets:
#	150
#	6870
#	32126
#	48503
#	72663
#	105113
#	154024
#	193721
#	221048
#	248449
#
# Disc length: 3495 seconds
#
# Revision: 1
# Processed by: cddbd v1.5.2PL0 Copyright (c) Steve Scherf et al.
# Submitted via: CDex 1.51
#
DISCID=810da50a
DTITLE=? - Empik 1
DYEAR=1900
DGENRE=Jazz
TTITLE0=? - Nienasycenie
TTITLE1=? - The Time
TTITLE2=? - It's Easy with You 
TTITLE3=? - Incognitor
TTITLE4=? - Polska
TTITLE5=? - The Law And The Fist 
TTITLE6=? - Le Grand Tango 
TTITLE7=? - Norgon
TTITLE8=? - Mazurek g-moll Op. 24 nr. 1 
TTITLE9=? - Larry, The Rebel of Love 
EXTD=
EXTT0=
EXTT1=
EXTT2=
EXTT3=
EXTT4=
EXTT5=
EXTT6=
EXTT7=
EXTT8=
EXTT9=
PLAYORDER=
